#!OML:ASF F:\VICON\USERDATA\INSTALL\rory3\rory3.ASF
:FULLY-SPECIFIED
:DEGREES
47
root 4.815517320966666 17.797829747042364 16.868200900546125 -0.0432562030076129 -5.63149856543187 -9.03167088062736
lfemur -29.44469510476705 -0.6888359137892782 -9.95206378362161
ltibia 26.6728821481274
lfoot -2.163805770817305 2.704552973772903
ltoes -1.7455913191872177
rfemur 4.590739792396821 6.107593011004802 35.93871673545982
rtibia 26.521991718229106
rfoot -14.142505893778598 -5.728167193127864
rtoes 5.36624619934388
lowerback 1.0 2.0500627007313517 6.588565403569566
upperback 0.3216802177673211 3.155961903792416 1.8743462090484093
thorax -4.7113822247970525 1.4518032579998268 -1.9558650862378422
lowerneck -17.60562472844648 -2.6350660028149218 -1.3441159106531202
upperneck 18.575988037276915 -4.174441850113889 0.6525522056711324
head 7.816095253867254 -1.923940225190494 0.08136979423803493
lclavicle -5.655314562838543e-16 -3.557567699914248e-15
lhumerus -35.44173970154145 3.710074155783632 83.18038932033774
lradius 21.941565856700542
lwrist 5.877479043975092
lhand -27.0301647589865 21.908350061563702
lfingers nan
lthumb -0.41388390667851493 52.12941151642578
rclavicle 1.4452113254342405e-16 -2.916894268448799e-15
rhumerus -21.316764549871433 -9.041743448100195 -82.01392725267537
rradius 30.031857219211318
rwrist -1.6446627518434056
rhand -17.887346339532154 1.0
rfingers nan
rthumb 8.477619442615188 -6.4239241153394175
48
root 4.854754680946651 17.746644202470282 18.510534180094922 0.39967708028343596 -5.871982486518814 -8.78113576881338
lfemur -28.85315698900569 -4.966440252036893 -8.28512646401268
ltibia 15.228295803583304
lfoot -3.9859179367893987 1.8358364850607751
ltoes -1.9327024771904346
rfemur 7.459708253816441 5.91810488285131 35.53825407787708
rtibia 25.361220837608904
rfoot -13.324132113042666 -4.829234189768218
rtoes 0.0713073494014198
lowerback 1.0 2.2238452643366564 6.619857095695821
upperback 0.2874680025572111 3.3361157355605084 1.847683909310994
thorax -4.491585710862306 1.6367893465345003 -2.0832289908906967
lowerneck -17.792635257809735 -2.7366220501880254 -1.367639930123672
upperneck 18.521652433408587 -4.140602981454327 0.6192575179158404
head 7.4137072816136 -1.9158379768320208 0.2839022070489415
lclavicle 6.636884462585053e-16 -1.2298200175463522e-15
lhumerus -35.55510029144472 4.258429845884352 82.95504199205165
lradius 21.91420700953034
lwrist 5.197657061247569
lhand -27.267389106741014 21.628278826250853
lfingers nan
lthumb -0.6492457277797405 51.797845125738064
rclavicle -2.1301913592878635e-15 -5.687647013692599e-15
rhumerus -20.303529732257093 -9.778650758506545 -82.06442122625015
rradius 31.139891075421815
rwrist -2.3149526922681414
rhand -17.82751726114198 1.0
rfingers nan
rthumb 8.57542133277276 -7.378038664641893
49
root 4.895422236848623 17.66941291915742 19.58660715710524 0.37938669408029835 -6.079912466306066 -8.894053750764904
lfemur -27.596648433312282 -6.879621101490205 -8.062531837406306
ltibia 11.083186968907683
lfoot -4.8859695700328345 1.2832209623297466
ltoes -3.4965660063364763
rfemur 9.30648692142427 6.099389649537004 34.776298261505026
rtibia 25.81068935266984
rfoot -13.652571233775426 -4.381492003592086
rtoes -3.830498534214817
lowerback 1.0 2.2486089323609217 6.329389224206175
upperback 0.16081175844497986 3.3999268910883393 1.750756711133093
thorax -4.3244924508063365 1.7282813989983303 -2.127465800683254
lowerneck -17.702887431487074 -2.7616466175008405 -1.3566687892456553
upperneck 18.593720495989068 -4.355877320923394 0.5325608222012613
head 7.150508966224986 -2.020083266721314 0.19069774436570466
lclavicle -1.4348720855448073e-16 -4.47060597597911e-15
lhumerus -35.762263899500155 5.186506040546126 82.38435640619507
lradius 21.155196367258533
lwrist 4.989177275873075
lhand -27.16159896306129 22.859306633594347
lfingers nan
lthumb -0.5825309380596227 53.01271869679859
rclavicle -2.024667128619626e-15 -5.3830807531884e-15
rhumerus -20.180698584905997 -10.051391104420187 -82.2031672153816
rradius 31.90227122452164
rwrist -2.2648288835992494
rhand -17.866620448463188 1.0
rfingers nan
rthumb 8.793842586116613 -7.037138321353827
50
root 4.940983766705096 17.623521997358452 20.099991360891597 -0.17057529612902522 -6.129540790699027 -8.391780030960968
lfemur -27.15867047107527 -3.2672620725172328 -10.842508642607141
ltibia 14.685632200602406
lfoot -5.303457672901839 1.381429533925595
ltoes -2.1650274741266453
rfemur 10.707352655661726 5.782765948780338 33.8794334969488
rtibia 29.15822304966513
rfoot -12.794589810974301 -3.7062217715809145
rtoes -7.006387108812543
lowerback 1.0 2.175191674950626 6.035741209516215
upperback 0.2619458666104742 3.3727689141963673 1.6438329847121609
thorax -4.152793650548591 1.6694441858222127 -2.0215174661724484
lowerneck -17.648626796465685 -2.8676148034238187 -1.3720189057069185
upperneck 18.8940611696981 -4.403837491652092 0.6285569811366173
head 6.893652243071671 -2.033146156681614 0.30341110563950435
lclavicle 1.9520786481800906e-15 -3.1135865095192978e-15
lhumerus -35.97160625631285 5.133250797935183 82.39909239655769
lradius 20.07405418855616
lwrist 4.786400142695456
lhand -27.25521202136595 23.78349733343767
lfingers nan
lthumb -0.6972422624961425 53.599345627529026
rclavicle 5.859327053264285e-16 -3.225255386122183e-15
rhumerus -20.27259792800676 -10.509109672242937 -82.1142527714988
rradius 32.068900185570946
rwrist -1.5194851131050982
rhand -17.978685884433972 1.0
rfingers nan
rthumb 8.15511059287262 -6.140986574816408
51
root 4.998766733924071 17.61709716853178 21.33370941687315 -1.0778132251581471 -5.625461410125748 -7.279917704717603
lfemur -27.453766884995737 -2.3984379071818984 -13.351304263341284
ltibia 20.12227474965819
lfoot -3.673136964635714 -0.08440851055111764
ltoes 1.9854616080672143
rfemur 11.171344181036577 5.114181857344467 32.286443979471336
rtibia 32.622196152786266
rfoot -10.080082872212598 -2.7280268060116626
rtoes -10.67881279300485
lowerback 1.0 2.0408324241678537 5.303481699741524
upperback 0.23521059720703186 3.213965246865918 1.3474052989659384
thorax -4.160906772818327 1.614602826122026 -1.7524953685384868
lowerneck -17.54295006169921 -2.858442921739675 -1.4050955418516062
upperneck 19.316088210938105 -4.598088305045871 0.7643462851470233
head 6.895247916980615 -2.1266030390127604 0.19400616161116957
lclavicle 1.2813283049812655e-15 -3.322566980146707e-15
lhumerus -36.216562272841244 5.226565618690682 82.09051610730415
lradius 18.812259440159423
lwrist 4.736658031430407
lhand -27.103459501332836 23.959201843443605
lfingers nan
lthumb -0.11551160749222328 54.67016558898041
rclavicle 2.6047227474744328e-17 -5.2939510566856275e-15
rhumerus -21.2165499578966 -12.099305074776744 -81.61497584621202
rradius 32.02474180780016
rwrist -0.24761876875953437
rhand -17.693011451040977 1.0
rfingers nan
rthumb 8.085331400423813 -5.696369342696006
52
root 5.049774302762818 17.63691671259784 21.486762693785174 -2.0689489743940097 -5.32951455859497 -6.877900607092698
lfemur -25.940800226969564 -2.5331855479230483 -16.089830995992372
ltibia 22.915428326343914
lfoot -3.239319538291999 -2.80908239649158
ltoes 0.4476438218011065
rfemur 6.912722480153349 2.97746827490477 29.40521916177059
rtibia 39.88102579123691
rfoot -3.862138052661452 -1.2926443473289186
rtoes -13.679272665740664
lowerback 1.0 1.662633281232246 3.7489180893337988
upperback 0.2978121414944784 2.949316319711053 0.8744131877057818
thorax -4.591395428486983 1.4265564455369761 -1.429821500076
lowerneck -17.438166679114225 -3.017189273849641 -1.5219314461806195
upperneck 19.223122211761208 -4.820195339826444 0.9027210427312633
head 6.711713218053264 -2.2434174563986913 0.3316513707723138
lclavicle -2.910044488681756e-15 -5.6038969154914406e-15
lhumerus -36.510116051996114 5.735314128818131 81.74235825544628
lradius 17.66798695006556
lwrist 3.6850179130744953
lhand -27.01953952396328 22.64321462771689
lfingers nan
lthumb -0.4819683129670129 52.69822765960609
rclavicle -2.10208393071606e-15 -5.601304743454428e-15
rhumerus -23.112259914849727 -13.68935254305675 -81.38335679714137
rradius 32.77264355435618
rwrist 1.470503193862072
rhand -17.623685499116206 1.0
rfingers nan
rthumb 8.346499445266744 -5.814088656808231
53
root 5.121009248004505 17.70626462202871 23.156516957780994 -2.937212366791535 -5.417958622370264 -5.553570577866276
lfemur -23.650958117096913 -1.7167443598599261 -18.040491896107053
ltibia 27.623526645184818
lfoot -4.194339597684484 -2.752506741485346
ltoes -1.2968223326653288
rfemur 2.6092947913048743 2.9091595394153646 27.814065583190295
rtibia 49.157373696796185
rfoot 5.493478180351746 0.5247239832898858
rtoes -9.230070246136032
lowerback 1.0 1.486836487213193 3.320696529000256
upperback 0.43419333559697165 2.920871942291778 0.6465971681266005
thorax -4.795621983223269 1.336416488706747 -1.5081330629928786
lowerneck -17.03785372208721 -3.0957909026709745 -1.555869151741652
upperneck 19.40501567310632 -4.866926486465907 1.137525701142402
head 7.014022658303748 -2.294453680730963 0.36787403162527826
lclavicle 2.1394977756986035e-15 -1.6197332637034176e-15
lhumerus -36.20087874527642 5.91942631798841 81.58192511195932
lradius 17.81595557669075
lwrist 3.521096371963612
lhand -26.481381611946258 22.81957751256174
lfingers nan
lthumb -0.15159716909802745 52.3335638236372
rclavicle -1.844227950413219e-15 -5.666144967756884e-15
rhumerus -24.49960688751088 -15.000503093711224 -81.20731370989348
rradius 33.55378736252597
rwrist 2.868355015517683
rhand -17.536228826266644 1.0
rfingers nan
rthumb 8.28043416556662 -6.717194917088889
54
root 5.189293326477365 17.76606962616947 23.62166309968633 -3.660992503325986 -5.473964115155825 -3.6447969842326398
lfemur -21.522178704950335 -2.1142203713970065 -20.295442690231322
ltibia 27.924516658055573
lfoot -6.250280655152865 -2.0343738711665327
ltoes 0.204848264677862
rfemur -2.95447948730269 2.9320353984764997 25.859144789213723
rtibia 58.980578250212005
rfoot 15.155118650739482 0.5688013840185073
rtoes 2.2351471515880634
lowerback 1.0 1.202556183751482 1.9157361526972925
upperback 0.46515751196442945 2.575943539710793 0.2553402305555539
thorax -4.980306819354859 1.1744483641669452 -1.1892509912252807
lowerneck -16.860005010071497 -2.9534260088398607 -1.452073667549508
upperneck 19.229756047185088 -4.516944615408061 0.8680256278791296
head 7.345494428558006 -2.1298264062530023 0.19797473500257728
lclavicle 1.4384552969035543e-15 -1.7097220577783458e-15
lhumerus -36.177179187886345 5.395723480635595 81.70437555612864
lradius 18.36121793694273
lwrist 4.732444288182059
lhand -26.008164326481303 22.610618982930898
lfingers nan
lthumb 0.48977524285703455 52.55599641637446
rclavicle -1.5190040527741805e-15 -6.061796973459354e-15
rhumerus -25.425128874619247 -14.93103287488493 -81.47468909752453
rradius 33.199114982348405
rwrist 3.507446211355822
rhand -17.387830695204524 1.0
rfingers nan
rthumb 8.374483741620317 -6.396469558414204
